HIERARCHY
ROOT Hips
{
	OFFSET -3.958830 18.904000 13.208200
	CHANNELS 6 Xposition Yposition Zposition Zrotation Yrotation Xrotation 
	JOINT LHipJoint
	{
		OFFSET 0.000000 0.000000 0.000000
		CHANNELS 3 Zrotation Yrotation Xrotation
		JOINT LeftUpLeg
		{
			OFFSET 1.800000 -1.400000 0.085000
			CHANNELS 3 Zrotation Yrotation Xrotation
			JOINT LeftLeg
			{
				OFFSET 2.215000 -6.000000 0.000000
				CHANNELS 3 Zrotation Yrotation Xrotation
				JOINT LeftFoot
				{
					OFFSET 2.500000 -6.900000 0.000000
					CHANNELS 3 Zrotation Yrotation Xrotation
					JOINT LeftToeBase
					{
						OFFSET 0.200000 -0.500000 1.950000
						CHANNELS 3 Zrotation Yrotation Xrotation
						End Site
						{
							OFFSET 0.000000 0.000000 0.000000
						}
					}
				}
			}
		}
	}
	JOINT RHipJoint
	{
		OFFSET 0.000000 0.000000 0.000000
		CHANNELS 3 Zrotation Yrotation Xrotation
		JOINT RightUpLeg
		{
			OFFSET -1.800000 -1.400000 0.085000
			CHANNELS 3 Zrotation Yrotation Xrotation
			JOINT RightLeg
			{
				OFFSET -2.215000 -6.000000 0.000000
				CHANNELS 3 Zrotation Yrotation Xrotation
				JOINT RightFoot
				{
					OFFSET -2.500000 -6.900000 0.000000
					CHANNELS 3 Zrotation Yrotation Xrotation
					JOINT RightToeBase
					{
						OFFSET -0.200000 -0.500000 1.950000
						CHANNELS 3 Zrotation Yrotation Xrotation
						End Site
						{
							OFFSET 0.000000 0.000000 0.000000
						}
					}
				}
			}
		}
	}
	JOINT LowerBack
	{
		OFFSET 0.000000 0.000000 0.000000
		CHANNELS 3 Zrotation Yrotation Xrotation
		JOINT Spine
		{
			OFFSET -0.087000 1.940000 -0.288900
			CHANNELS 3 Zrotation Yrotation Xrotation
			JOINT Spine1
			{
				OFFSET 0.000000 1.950000 0.060000
				CHANNELS 3 Zrotation Yrotation Xrotation
				JOINT Neck
				{
					OFFSET 0.000000 0.000000 0.000000
					CHANNELS 3 Zrotation Yrotation Xrotation
					JOINT Neck1
					{
						OFFSET 0.000000 1.600000 0.340000
						CHANNELS 3 Zrotation Yrotation Xrotation
						JOINT Head
						{
							OFFSET 0.000000 1.667000 -0.240000
							CHANNELS 3 Zrotation Yrotation Xrotation
							End Site
							{
								OFFSET 0.000000 0.000000 0.000000
							}
						}
					}
				}
				JOINT LeftShoulder
				{
					OFFSET 0.000000 0.000000 0.000000
					CHANNELS 3 Zrotation Yrotation Xrotation
					JOINT LeftArm
					{
						OFFSET 2.700000 1.550000 -0.730000
						CHANNELS 3 Zrotation Yrotation Xrotation
						JOINT LeftForeArm
						{
							OFFSET 5.450000 0.000000 0.000000
							CHANNELS 3 Zrotation Yrotation Xrotation
							JOINT LeftHand
							{
								OFFSET 3.450000 0.000000 0.000000
								CHANNELS 3 Zrotation Yrotation Xrotation
								JOINT LeftHandIndex1
								{
									OFFSET 0.750000 0.000000 0.000000
									CHANNELS 3 Zrotation Yrotation Xrotation
									End Site
									{
										OFFSET 0.000000 0.000000 0.000000
									}
								}
							}
						}
					}
				}
				JOINT RightShoulder
				{
					OFFSET 0.000000 0.000000 0.000000
					CHANNELS 3 Zrotation Yrotation Xrotation
					JOINT RightArm
					{
						OFFSET -2.700000 1.550000 -0.730000
						CHANNELS 3 Zrotation Yrotation Xrotation
						JOINT RightForeArm
						{
							OFFSET -5.450000 0.000000 0.000000
							CHANNELS 3 Zrotation Yrotation Xrotation
							JOINT RightHand
							{
								OFFSET -3.450000 0.000000 0.000000
								CHANNELS 3 Zrotation Yrotation Xrotation
								JOINT RightHandIndex1
								{
									OFFSET -0.750000 0.000000 0.000000
									CHANNELS 3 Zrotation Yrotation Xrotation
									End Site
									{
										OFFSET 0.000000 0.000000 0.000000
									}
								}
							}
						}
					}
				}
			}
		}
	}
}
MOTION
Frames: 9
Frame Time: 0.016667
-0.884490 16.520450 -3.492280 -5.596178 -34.317911 -3.443340 -15.441728 15.265103 2.127709 18.472215 -0.003277 2.413874 7.338080 4.924133 19.393454 0.050358 5.572484 2.703089 0.030250 0.061860 0.024780 17.851946 -10.520769 2.398351 -7.904272 0.163721 -9.646038 5.356051 -4.638477 12.844104 -0.031462 -3.307827 3.202370 0.181280 0.272980 0.078130 -1.842234 -5.080887 -6.700945 1.374305 -4.794596 4.583933 8.369998 -7.080623 6.868356 -0.212178 -7.862720 -9.714843 -18.800301 14.570514 34.246949 -5.354810 13.734120 -1.644680 -7.008983 -3.776532 5.119204 -1.219247 0.945214 1.223597 5.691555 -0.984686 -0.296225 -4.051540 2.977884 0.074740 0.253900 -0.063720 0.048670 9.124239 9.103208 3.567427 -7.340663 0.274061 -3.877204 -97.963172 37.576789 -37.082976 2.216015 -1.600379 -0.216810 0.203400 0.094770 -0.070660 
-0.860680 16.508340 -3.496910 -5.832679 -34.506987 -3.498434 -15.453142 15.323180 2.081474 18.580192 -0.060104 1.812057 7.346979 5.085558 21.210820 0.070465 5.696994 2.654027 0.014390 0.047780 0.006310 17.835731 -10.501713 2.416042 -7.866062 0.200553 -9.725060 5.686840 -4.698290 12.870845 -0.020823 -3.322794 3.203429 0.172740 0.289630 0.074840 -1.776253 -5.183076 -6.706629 0.858641 -4.721682 4.712544 9.057453 -7.087281 6.808476 -0.413912 -7.748451 -9.741490 -18.662867 14.638276 34.336752 -4.988550 13.713810 -0.868100 -6.807546 -3.872040 5.144033 -1.003302 0.590408 1.173014 6.673439 -1.953006 -0.252921 -4.050933 2.993406 0.058900 0.264690 -0.077960 0.051850 9.372277 9.071578 3.649526 -7.092600 -0.479410 -3.956958 -99.245204 37.218466 -37.737837 2.232623 -1.625074 -0.218640 0.201530 0.098710 -0.062240 
-0.824300 16.499350 -3.504940 -5.739637 -34.651845 -3.413634 -15.449718 15.343463 2.077252 18.553361 -0.094811 1.220768 6.836202 5.323327 22.161471 0.073557 5.776181 2.622884 0.000030 0.033880 -0.012730 17.834290 -10.490005 2.416542 -8.032331 0.280695 -10.314021 5.740058 -4.666890 12.899785 0.000261 -3.288911 3.214523 0.168030 0.309350 0.077100 -1.772173 -5.238868 -6.714342 0.519036 -4.814231 4.983773 9.150286 -7.125363 6.650505 -0.635542 -7.709683 -9.733688 -18.476826 14.556241 33.739716 -4.780240 13.607370 -0.566490 -6.434856 -3.668360 5.081204 -1.032804 0.405606 1.090541 8.096478 -2.674914 -0.243751 -4.070758 3.001145 0.044850 0.278020 -0.093580 0.053060 9.432270 8.758965 3.725673 -6.019011 -1.133530 -4.020064 -101.210382 36.958765 -39.151584 2.231656 -1.653866 -0.221580 0.203220 0.109880 -0.055960 
-0.780550 16.496960 -3.510390 -5.610217 -34.814496 -3.232245 -15.433968 15.348180 2.084420 18.416277 -0.106059 0.606086 6.236016 5.558307 22.841910 0.067635 5.828733 2.600298 -0.001590 0.033040 -0.019920 17.843653 -10.488435 2.413510 -8.358652 0.381547 -11.189683 5.892631 -4.674222 13.127920 0.019264 -3.252452 3.222411 0.172110 0.321770 0.080300 -1.814610 -5.255508 -6.720447 0.490417 -4.978253 5.435480 8.972623 -7.197233 6.589245 -0.828777 -7.815348 -9.739833 -18.448882 14.332303 32.663378 -4.817270 13.392220 -0.836010 -5.818848 -3.364377 5.067756 -1.337007 0.527334 1.061211 8.774730 -3.374547 -0.252819 -4.083244 3.007659 0.034990 0.286840 -0.102820 0.055600 9.153321 8.487386 3.729411 -5.178551 -1.296108 -4.083172 -102.860893 36.680676 -40.387240 2.221723 -1.680771 -0.222460 0.208990 0.115470 -0.052220 
-0.733930 16.494300 -3.515680 -5.245837 -34.781197 -2.969597 -15.424379 15.346514 2.109700 18.134500 -0.124201 -0.145371 5.368059 5.840855 23.255663 0.055360 5.861042 2.585781 -0.008930 0.026000 -0.031460 17.848127 -10.479974 2.399389 -8.799510 0.478651 -12.313615 5.780569 -4.601389 13.296101 0.049405 -3.186027 3.238947 0.174860 0.339760 0.083390 -1.844283 -5.290615 -6.727042 0.238208 -5.207926 5.856060 8.790102 -7.301883 6.409697 -1.035061 -7.875283 -9.712114 -18.291263 14.087393 31.445690 -4.842520 13.205240 -0.972680 -5.142580 -2.942255 5.017217 -1.599150 0.641977 1.040817 9.316895 -3.891231 -0.266889 -4.102464 3.015818 0.021260 0.300640 -0.118040 0.056520 8.852704 8.032428 3.713653 -4.295427 -1.825278 -4.124284 -104.372136 36.518488 -41.644418 2.214186 -1.711035 -0.226530 0.214040 0.124670 -0.048310 
-0.682200 16.490540 -3.525230 -4.787209 -34.705168 -2.588516 -15.412004 15.332291 2.144535 17.803959 -0.165324 -1.063234 4.406757 6.106653 23.405172 0.027833 5.862708 2.580651 -0.007200 0.030200 -0.034300 17.856921 -10.468512 2.384346 -9.241589 0.592837 -13.688888 5.487183 -4.475586 13.496557 0.081551 -3.099071 3.258762 0.187810 0.355860 0.087510 -1.891975 -5.316458 -6.730467 0.016897 -5.589483 6.379365 8.397403 -7.512373 6.110566 -1.248819 -7.972802 -9.567388 -18.090420 13.887607 29.889072 -5.080150 13.163200 -1.419470 -4.677537 -2.407541 4.898462 -1.610507 1.132845 0.963787 10.519673 -4.317592 -0.294362 -4.128798 3.022651 0.008560 0.316590 -0.131370 0.059030 8.771359 7.496379 3.563540 -3.636538 -2.005768 -4.092155 -105.501029 36.389678 -42.572240 2.206005 -1.742537 -0.232770 0.220930 0.128630 -0.047140 
-0.629850 16.483840 -3.540650 -4.265418 -34.751574 -2.024111 -15.407903 15.309893 2.196658 17.415647 -0.207185 -1.976315 3.247573 6.385827 23.159851 -0.001374 5.833688 2.585222 0.003250 0.046390 -0.034050 17.861851 -10.427673 2.378742 -9.579601 0.740454 -15.269267 5.136249 -4.296672 13.585758 0.112164 -2.981278 3.288545 0.206140 0.367590 0.090830 -1.922928 -5.376688 -6.744421 -0.233811 -5.904096 6.898514 8.169250 -7.651935 5.644342 -1.489991 -8.216799 -9.462384 -18.250853 13.906994 28.127066 -5.185430 13.193060 -2.050380 -4.168667 -1.807786 4.813891 -1.909250 1.413421 0.895385 12.019139 -4.455935 -0.324923 -4.153090 3.030670 -0.001960 0.327820 -0.139980 0.064310 8.739446 6.992771 3.430114 -3.428104 -2.736837 -4.059193 -106.629184 36.414257 -43.631708 2.203877 -1.772124 -0.235390 0.228650 0.128180 -0.045050 
-0.573580 16.473560 -3.558900 -3.995124 -34.893641 -1.228887 -15.397334 15.287998 2.250249 17.030625 -0.300279 -2.932090 2.278136 6.561735 22.772430 -0.032295 5.775288 2.598545 0.012570 0.061270 -0.034500 17.874500 -10.379225 2.388938 -9.604391 0.943705 -16.993086 4.608445 -4.076330 13.791320 0.142368 -2.842527 3.324525 0.221930 0.377210 0.093520 -1.980394 -5.438477 -6.763279 -0.117923 -6.335701 7.512383 7.894825 -7.926006 5.215327 -1.716899 -8.501620 -9.502672 -18.519867 14.090446 26.305204 -5.182620 13.324680 -2.663160 -3.617632 -1.356908 4.882011 -2.335726 1.781747 0.843232 13.198141 -3.625607 -0.314723 -4.184756 3.030727 -0.010680 0.335600 -0.146960 0.068380 8.654234 6.588522 3.366011 -2.971934 -3.533183 -4.087582 -108.108715 36.457508 -45.152910 2.200524 -1.803125 -0.236890 0.234580 0.128370 -0.042880 
-0.519730 16.458030 -3.574190 -3.696553 -35.190050 -0.571016 -15.388749 15.240792 2.325427 16.717261 -0.359585 -3.760180 0.822911 6.909767 22.341431 -0.056184 5.764801 2.592481 0.022290 0.075060 -0.033340 17.888995 -10.319276 2.401361 -9.541510 1.118672 -18.488682 4.022687 -3.838305 13.824576 0.164477 -2.702308 3.363235 0.235640 0.378640 0.092950 -2.041467 -5.485040 -6.799618 0.074005 -6.758587 8.193118 7.547843 -8.180123 4.850028 -1.885248 -8.978243 -9.687984 -19.269038 14.246235 24.613991 -5.363650 13.339260 -3.503080 -2.900609 -1.041478 5.084439 -2.960181 2.434388 0.781036 14.198956 -3.299084 -0.311219 -4.202142 3.026509 -0.008810 0.334350 -0.147820 0.069900 8.303269 6.508994 3.349738 -3.019812 -3.918323 -4.126296 -108.897661 36.554779 -46.125610 2.193563 -1.815251 -0.239450 0.243820 0.130490 -0.043520 
